<?xml version="1.0" encoding="utf-8"?>
<!-- Generator: Adobe Illustrator 19.0.0, SVG Export Plug-In . SVG Version: 6.00 Build 0)  -->
<svg version="1.1" id="Camada_1" xmlns="http://www.w3.org/2000/svg" xmlns:xlink="http://www.w3.org/1999/xlink" x="0px" y="0px"
	 viewBox="0 0 858.1 768.1" style="enable-background:new 0 0 858.1 768.1;" xml:space="preserve">
<style type="text/css">
	.st0{fill:#FFFFFF;}
</style>
<g id="XMLID_8_">
	<g id="XMLID_2_">
		<g id="XMLID_78_">
			<path id="XMLID_82_" class="st0" d="M213.4,216.4c109.2-1.3,218.3-1.8,327.5-1.4c30.9,0.1,61.7,0.3,92.6,0.5
				c15.7,0.1,30.7-13.9,30-30c-0.7-16.4-13.2-29.9-30-30c-109.2-0.9-218.3-0.9-327.5-0.1c-30.9,0.2-61.7,0.6-92.6,0.9
				c-15.7,0.2-30.7,13.7-30,30C184.1,202.5,196.6,216.6,213.4,216.4L213.4,216.4z"/>
		</g>
	</g>
	<g id="XMLID_3_">
		<g id="XMLID_72_">
			<path id="XMLID_76_" class="st0" d="M413,284.5c25.8-23.7,48-51.3,67.1-80.6c8.6-13.2,3.1-33.7-10.8-41
				c-14.9-7.9-31.9-3.3-41,10.8c-4.6,7.1-9.4,14.1-14.4,20.9c-1.1,1.4-2.2,2.9-3.2,4.3c-3.7,4.9,3.9-4.8,0.3-0.4
				c-2.6,3.2-5.2,6.5-7.9,9.7c-10.1,12-21,23.4-32.5,34c-11.6,10.7-11.6,31.8,0,42.4C383,295.9,400.7,295.9,413,284.5L413,284.5z"/>
		</g>
	</g>
	<g id="XMLID_4_">
		<g id="XMLID_66_">
			<path id="XMLID_70_" class="st0" d="M200.5,301.4c107.3,0,214.6-0.1,322-0.1c14.7,0,29.3,0,44,0c14.9,0,30-0.8,44.9,0.1
				c-2.7-0.4-5.3-0.7-8-1.1c1,0.1,1.9,0.3,2.8,0.6c-2.4-1-4.8-2-7.2-3c4.7,2.6,2.4,0.1-6.9-7.6c0.5,0.7,0.9,1.5,1.2,2.2
				c-1-2.4-2-4.8-3-7.2c1.1,2.7,1.7,5.4,2.1,8.3c-0.4-2.7-0.7-5.3-1.1-8c2.2,18.1,2.5,36.6,2.9,54.8c0.5,18.8,0.4,37.6,0,56.5
				c-0.8,37.4-3.1,74.7-5.9,112c-1.6,21.4-3.4,42.8-5.2,64.3c-1.3,15.7,14.7,30.7,30,30c17.4-0.8,28.6-13.2,30-30
				c4-48.1,8-96.3,10-144.5c2-46.9,3-94.7-1.7-141.5c-1.9-18.8-9.3-39.3-30.1-44.3c-12.8-3.1-27-1.6-40-1.6c-24.3,0-48.7,0-73,0
				c-48,0-96,0-144,0.1c-54.7,0-109.3,0-164,0.1c-15.7,0-30.7,13.8-30,30C171.3,287.6,183.7,301.4,200.5,301.4L200.5,301.4z"/>
		</g>
	</g>
	<g id="XMLID_5_">
		<g id="XMLID_60_">
			<path id="XMLID_64_" class="st0" d="M168.9,272.3c4.6,67.1,9.2,134.3,13.9,201.4c0.6,8,3,15.4,8.8,21.2
				c5.2,5.2,13.7,9.1,21.2,8.8c15.3-0.7,31.2-13.2,30-30c-4.6-67.1-9.2-134.3-13.9-201.4c-0.6-8-3-15.4-8.8-21.2
				c-5.2-5.2-13.7-9.1-21.2-8.8C183.6,243,167.8,255.5,168.9,272.3L168.9,272.3z"/>
		</g>
	</g>
	<g id="XMLID_6_">
		<g id="XMLID_54_">
			<path id="XMLID_58_" class="st0" d="M213.3,497.2c106.1,3.4,212.2,5.1,318.3,5c29.8,0,59.7-0.2,89.5-0.5
				c15.7-0.2,30.7-13.7,30-30c-0.7-16.1-13.2-30.2-30-30c-106.1,1.1-212.2,0.4-318.3-2c-29.8-0.7-59.7-1.5-89.5-2.5
				c-15.7-0.5-30.7,14.2-30,30C184.1,483.9,196.5,496.7,213.3,497.2L213.3,497.2z"/>
		</g>
	</g>
	<g id="XMLID_7_">
		<g id="XMLID_48_">
			<path id="XMLID_52_" class="st0" d="M213.3,398c85.7,3.4,171.6,5.1,257.4,5c24.2,0,48.4-0.2,72.5-0.5c15.7-0.2,30.7-13.7,30-30
				c-0.7-16.1-13.2-30.2-30-30c-85.8,1.1-171.6,0.4-257.4-2c-24.2-0.7-48.4-1.5-72.5-2.5c-15.7-0.6-30.7,14.2-30,30
				C184.1,384.8,196.5,397.3,213.3,398L213.3,398z"/>
		</g>
	</g>
</g>
<g id="XMLID_1_">
	<g id="XMLID_9_">
		<g id="XMLID_42_">
			<path id="XMLID_46_" class="st0" d="M229.2,537.1c-3.9,32.6-1.6,65.9,6.2,97.8c2.2,8.9,12.7,15.1,21.5,12.2
				c9.2-3,14.6-12,12.2-21.5c-1.8-7.2-3.3-14.5-4.4-21.9c0-0.2-0.8-5.6-0.4-2.8c-0.2-1.9-0.4-3.7-0.6-5.6c-0.4-4.1-0.7-8.1-1-12.2
				c-0.9-15.4-0.3-30.8,1.5-46.1c1.1-9.1-8.8-17.9-17.5-17.5C236.3,520.1,230.3,527.3,229.2,537.1L229.2,537.1z"/>
		</g>
	</g>
	<g id="XMLID_10_">
		<g id="XMLID_36_">
			<path id="XMLID_40_" class="st0" d="M291.2,527.8c-6.1,10.4-8.1,22.1-9.5,34c-1.3,10.7-2.1,21.6-2.2,32.4
				c-0.4,22.1,3.8,55.8,29.6,62.5c26.2,6.8,44.1-24,50.6-44.6c6.6-20.8,7-45.7-0.9-66.2c-5.1-13.2-13.1-25.3-27-30.3
				c-13.2-4.8-28.2,0.1-36.8,11c-5.7,7.1-7.5,17.9,0,24.7c6.3,5.8,18.7,7.6,24.7,0c0.7-0.8,1.3-1.6,2-2.4c0.2-0.3,2.1-1.8,0.4-0.5
				c-1.6,1.2,0.2,0,0.5-0.2c-0.8,0.5-3.3,0.6-0.6,0.3c-4.6,0.4-0.1-0.4,0.2,0.2c-0.1-0.2-4.4-0.3-1,0.1c-1.6-0.2-2-1.5-0.6-0.1
				c0.7,0.8,1.6,2-0.2-0.2c0.4,0.5,1.1,1.2,1.6,1.6c1.5,1.2-0.2-0.3-0.5-0.7c0.5,0.7,1,1.5,1.4,2.2c0.7,1.2,1.3,2.4,2,3.6
				c0.4,0.7,1,3,0-0.2c0.3,0.9,0.7,1.9,1,2.8c1.2,3.5,2,7.1,2.7,10.7c0.6,3.3,0-1.5,0.3,1.9c0.2,2.2,0.4,4.4,0.4,6.7
				c0.1,3.9-0.1,7.9-0.4,11.8c0,0.1-0.4,3-0.1,1.2c0.3-1.8-0.2,1-0.2,1.1c-0.4,2.2-0.9,4.5-1.4,6.7c-0.9,3.7-2.1,7.3-3.5,10.8
				c1.1-2.7-0.3,0.5-0.8,1.5c-0.9,1.8-1.8,3.5-2.9,5.2c-0.5,0.8-1,1.6-1.5,2.4c-0.2,0.3-1.5,2.3-0.2,0.5c1.2-1.7,0,0-0.3,0.3
				c-0.8,0.9-1.6,1.7-2.3,2.5c-0.1,0.1-2.1,2-0.7,0.8c1.3-1.1-0.6,0.4-0.8,0.5c-2.8,1.9-0.6,0.1,0.2,0.1c1.3-0.1,2.8,0,0.6-0.1
				c1.3,0.1,2.4,0.1,3.6,0.6c0.1,0.1,2.6,2.2,1.2,0.8c-1.3-1.4,0.6,1,0.6,1.1c-0.5-0.8-1-1.5-1.5-2.4c-0.6-1-1.8-4-0.8-1.4
				c-0.7-2.1-1.4-4.2-2-6.4c-0.5-2-0.9-4-1.2-6c-0.3-2,0-0.2,0,0.2c-0.1-1.2-0.2-2.5-0.3-3.7c-0.3-4.4-0.3-8.8-0.2-13.1
				c0.3-9.6,1-19.2,2-28.8c0-0.1,0.3-2.9,0.1-1c-0.3,2,0.4-2.7,0.4-2.6c0.3-1.9,0.7-3.7,1.1-5.5c0.5-2,1.3-3.9,1.7-5.9
				c0.4-1.9-0.3,0.5-0.4,0.8c0.6-1.3,1.2-2.5,1.9-3.7c4.6-7.9,2.1-19.5-6.3-23.9C306.7,517.1,296.1,519.4,291.2,527.8L291.2,527.8z"
				/>
		</g>
	</g>
	<g id="XMLID_18_">
		<g id="XMLID_30_">
			<path id="XMLID_34_" class="st0" d="M383.1,527.8c-6.1,10.4-8.1,22.1-9.5,34c-1.3,10.7-2.1,21.6-2.2,32.4
				c-0.4,22.1,3.8,55.8,29.6,62.5c26.2,6.8,44.1-24,50.6-44.6c6.6-20.8,7-45.7-0.9-66.2c-5.1-13.2-13.1-25.3-27-30.3
				c-13.2-4.8-28.2,0.1-36.8,11c-5.7,7.1-7.5,17.9,0,24.7c6.3,5.8,18.7,7.6,24.7,0c0.7-0.8,1.3-1.6,2-2.4c0.2-0.3,2.1-1.8,0.4-0.5
				c-1.6,1.2,0.2,0,0.5-0.2c-0.8,0.5-3.3,0.6-0.6,0.3c-4.6,0.4-0.1-0.4,0.2,0.2c-0.1-0.2-4.4-0.3-1,0.1c-1.6-0.2-2-1.5-0.6-0.1
				c0.7,0.8,1.6,2-0.2-0.2c0.4,0.5,1.1,1.2,1.6,1.6c1.5,1.2-0.2-0.3-0.5-0.7c0.5,0.7,1,1.5,1.4,2.2c0.7,1.2,1.3,2.4,2,3.6
				c0.4,0.7,1,3,0-0.2c0.3,0.9,0.7,1.9,1,2.8c1.2,3.5,2,7.1,2.7,10.7c0.6,3.3,0-1.5,0.3,1.9c0.2,2.2,0.4,4.4,0.4,6.7
				c0.1,3.9-0.1,7.9-0.4,11.8c0,0.1-0.4,3-0.1,1.2c0.3-1.8-0.2,1-0.2,1.1c-0.4,2.2-0.9,4.5-1.4,6.7c-0.9,3.7-2.1,7.3-3.5,10.8
				c1.1-2.7-0.3,0.5-0.8,1.5c-0.9,1.8-1.8,3.5-2.9,5.2c-0.5,0.8-1,1.6-1.5,2.4c-0.2,0.3-1.5,2.3-0.2,0.5c1.2-1.7,0,0-0.3,0.3
				c-0.8,0.9-1.6,1.7-2.3,2.5c-0.1,0.1-2.1,2-0.7,0.8c1.3-1.1-0.6,0.4-0.8,0.5c-2.8,1.9-0.6,0.1,0.2,0.1c1.3-0.1,2.8,0,0.6-0.1
				c1.3,0.1,2.4,0.1,3.6,0.6c0.1,0.1,2.6,2.2,1.2,0.8c-1.3-1.4,0.6,1,0.6,1.1c-0.5-0.8-1-1.5-1.5-2.4c-0.6-1-1.8-4-0.8-1.4
				c-0.7-2.1-1.4-4.2-2-6.4c-0.5-2-0.9-4-1.2-6c-0.3-2,0-0.2,0,0.2c-0.1-1.2-0.2-2.5-0.3-3.7c-0.3-4.4-0.3-8.8-0.2-13.1
				c0.3-9.6,1-19.2,2-28.8c0-0.1,0.3-2.9,0.1-1c-0.3,2,0.4-2.7,0.4-2.6c0.3-1.9,0.7-3.7,1.1-5.5c0.5-2,1.3-3.9,1.7-5.9
				c0.4-1.9-0.3,0.5-0.4,0.8c0.6-1.3,1.2-2.5,1.9-3.7c4.6-7.9,2.1-19.5-6.3-23.9C398.6,517.1,388,519.4,383.1,527.8L383.1,527.8z"/>
		</g>
	</g>
</g>
<g id="XMLID_11_">
	<g id="XMLID_24_">
		<path id="XMLID_28_" class="st0" d="M683.9,655c58.8-34.9,103.2-88.7,130.3-151.1c13.1-30.2,23.5-61.3,31.2-93.3
			c10.2-42.4,15.5-87.7,2.1-130.1c-12.1-38.1-35-71.1-59.5-102.2c-19.2-24.4-40.8-47-64.5-67C667.9,64.4,602.3,31,530.7,17.5
			c-41.3-7.8-83.6-11-125.6-11.8C365.6,4.8,325.7,7,287,15.3c-38.4,8.3-74.2,24.7-106.3,47.4c-31.2,22.1-60.9,46.8-86.6,75.1
			c-23.8,26.2-45.3,55.5-59.7,87.9C17,265.2,9.1,307,7.1,350.1c-3.6,77.5,7.1,156,38.8,227.2c15.2,34.1,35.9,66.4,61.6,93.5
			c27.6,29.1,61.3,49.8,98.4,64.5c36.6,14.5,75.7,21.7,114.8,25.8c40.9,4.3,82.2,3.9,123.2,2c20.4-0.9,40.8-2.2,61.2-3.5
			c15.6-1,30.8-13.1,30-30c-0.7-15.4-13.2-31.1-30-30c-66.7,4.2-134,8.5-200.5-0.4c2.7,0.4,5.3,0.7,8,1.1
			c-32.9-4.5-65.5-12.2-96.3-25c2.4,1,4.8,2,7.2,3c-15.9-6.7-31.2-14.8-45.4-24.8c-1.6-1.2-3.3-2.3-4.9-3.5c-5.8-4.3,4.4,3.7,0,0
			c-3.5-2.9-6.9-5.7-10.3-8.8c-6.1-5.5-12-11.4-17.5-17.6c-2.9-3.2-5.7-6.5-8.4-9.9c-1-1.2-2-2.6-3-3.8c6.3,7.3,1.2,1.5-0.1-0.3
			c-4.7-6.4-9.2-13-13.4-19.8c-9.8-15.7-18.3-32.2-25.5-49.3c1,2.4,2,4.8,3,7.2C84,514.5,75.2,479.5,70.3,443.9
			c0.4,2.7,0.7,5.3,1.1,8c-6.1-45.3-7.1-92.3-1-137.6c-0.4,2.7-0.7,5.3-1.1,8c3.3-23.7,9-47,18.3-69.1c-1,2.4-2,4.8-3,7.2
			c6.3-14.9,14-29.1,22.8-42.6c2.2-3.3,4.4-6.6,6.8-9.9c1.1-1.5,2.2-3.1,3.3-4.6c0.6-0.9,1.3-1.7,1.9-2.6c0.7-0.9,3.8-4.9,0.6-0.8
			c-3.3,4.3,0.9-1.1,1.7-2.1c1.4-1.7,2.8-3.4,4.1-5.1c2.8-3.4,5.7-6.7,8.6-10c11.6-13,24.1-25.2,37.2-36.8
			c6.7-5.9,13.6-11.7,20.5-17.2c1.6-1.3,3.2-2.5,4.8-3.8c3.9-3.1-1.6,1.2-1.9,1.5c0.9-0.7,1.9-1.4,2.8-2.1c3.7-2.8,7.4-5.5,11.1-8.2
			c16.9-12.1,34.7-22.9,53.9-31.2c-2.4,1-4.8,2-7.2,3c23.4-9.9,48.2-15.7,73.3-19.2c-2.7,0.4-5.3,0.7-8,1.1
			c28.2-3.8,56.7-4.6,85.1-4c29.9,0.6,59.8,2.5,89.5,6.4c-2.7-0.4-5.3-0.7-8-1.1c36.2,4.9,71.5,13.5,105.3,27.7c-2.4-1-4.8-2-7.2-3
			c18,7.6,35.4,16.6,52,26.8c8.3,5.1,16.5,10.6,24.4,16.3c1.7,1.2,3.3,2.4,4.9,3.6c1.1,0.8,7.5,5.7,3,2.3c-4.5-3.5,1.8,1.5,2.9,2.3
			c2,1.6,3.9,3.2,5.9,4.8c14.1,11.7,27.4,24.4,40,37.7c6.1,6.5,12.1,13.2,17.8,20.1c2.8,3.3,5.5,6.6,8.1,10c1.5,1.9,6.3,8.3,0.1,0.1
			c1.4,1.9,2.9,3.7,4.3,5.6c14.6,19.6,28.2,40.3,37.9,62.8c-1-2.4-2-4.8-3-7.2c5.6,13.3,9.5,27,11.5,41.3c-0.4-2.7-0.7-5.3-1.1-8
			c2.1,16.9,1.5,33.9-0.6,50.8c0.4-2.7,0.7-5.3,1.1-8c-5.5,40.8-17.7,81.8-33.6,119.8c1-2.4,2-4.8,3-7.2
			c-6,14.1-12.7,27.9-20.3,41.1c-3.6,6.3-7.5,12.5-11.5,18.5c-2.2,3.2-4.4,6.4-6.7,9.6c-1.2,1.6-2.4,3.1-3.5,4.7
			c5.8-8.2,1.6-2,0.2-0.3c-9.7,12.1-20.5,23.5-32.1,33.8c-3.1,2.7-6.3,5.4-9.5,8c-1.8,1.4-8.1,5.6-0.1,0.1c-1.7,1.2-3.4,2.5-5.1,3.8
			c-7,5.1-14.3,9.8-21.7,14.2c-13.5,8-19.6,27.4-10.8,41C651.6,657.8,669.5,663.5,683.9,655L683.9,655z"/>
	</g>
</g>
</svg>
